<?xml version="1.0" standalone="no"?>
<!DOCTYPE svg PUBLIC "-//W3C//DTD SVG 20010904//EN"
 "http://www.w3.org/TR/2001/REC-SVG-20010904/DTD/svg10.dtd">
<svg version="1.0" xmlns="http://www.w3.org/2000/svg"
 width="1280.000000pt" height="1193.000000pt" viewBox="0 0 1280.000000 1193.000000"
 preserveAspectRatio="xMidYMid meet">
<metadata>
Created by potrace 1.15, written by Peter Selinger 2001-2017
</metadata>
<g transform="translate(0.000000,1193.000000) scale(0.100000,-0.100000)"
fill="#000000" stroke="none">
<path d="M6243 11915 c-39 -7 -95 -21 -125 -30 -86 -28 -283 -133 -367 -195
-236 -175 -370 -446 -372 -752 0 -123 14 -181 102 -400 189 -474 265 -839 276
-1333 15 -635 -94 -1458 -337 -2555 -22 -102 -42 -189 -43 -194 -7 -21 -286
608 -437 986 -355 880 -536 1553 -557 2063 -5 133 -2 159 52 535 56 388 57
397 45 490 -16 124 -41 202 -108 335 -69 139 -119 212 -201 299 -172 179 -374
267 -651 283 -309 17 -598 -91 -824 -307 -224 -216 -320 -494 -288 -839 15
-155 39 -249 95 -361 44 -89 81 -131 302 -335 101 -93 195 -203 241 -281 87
-148 146 -390 184 -749 18 -169 24 -727 11 -1015 -17 -370 -71 -1053 -85
-1067 -2 -2 -53 48 -114 112 -656 682 -1033 1324 -1058 1800 -5 95 0 159 41
470 44 338 47 366 36 451 -14 120 -42 206 -109 339 -69 139 -119 212 -201 299
-149 154 -312 237 -541 271 -270 41 -508 -14 -755 -176 -111 -72 -176 -130
-249 -221 -146 -183 -215 -409 -203 -673 11 -232 65 -399 189 -582 119 -178
321 -344 566 -467 l89 -45 6 -103 c28 -456 206 -1330 617 -3033 21 -88 43
-195 49 -238 13 -91 53 -200 102 -277 20 -30 246 -295 502 -588 559 -638 634
-743 718 -993 74 -221 47 -348 -166 -794 -172 -360 -248 -585 -275 -813 -6
-54 -15 -129 -20 -168 -4 -41 -4 -93 1 -120 5 -27 8 -96 7 -154 -3 -129 14
-172 101 -252 162 -149 517 -262 1126 -357 1034 -161 2787 -222 4205 -146
1560 84 2413 281 2568 593 26 51 35 102 21 119 -9 9 -9 33 -3 81 14 102 7 401
-12 511 -21 128 -31 153 -176 456 -147 307 -213 460 -270 627 -38 111 -42 132
-42 218 0 80 6 110 33 189 79 234 271 513 572 838 63 67 170 182 238 255 333
357 503 613 536 808 8 47 23 115 35 151 23 77 113 442 204 835 247 1065 379
1778 421 2277 l7 78 89 45 c246 123 447 289 567 467 127 187 179 352 189 597
l6 135 -53 170 c-60 192 -77 230 -149 332 -207 293 -542 452 -902 429 -182
-11 -339 -70 -529 -197 -249 -167 -385 -383 -427 -681 l-16 -118 48 -372 c40
-318 47 -388 41 -473 -27 -434 -367 -1024 -975 -1690 -88 -96 -214 -226 -216
-223 -2 2 -12 122 -24 268 -61 759 -80 1194 -62 1465 29 468 121 840 277 1119
73 130 140 218 263 342 200 203 283 389 298 670 10 182 -25 330 -123 529 -66
134 -129 219 -232 317 -121 113 -258 182 -445 225 -113 26 -378 23 -482 -5
-91 -25 -254 -101 -354 -166 -209 -135 -355 -350 -405 -597 -33 -166 -32 -195
29 -624 54 -378 56 -408 51 -540 -19 -489 -206 -1192 -534 -2010 -136 -339
-453 -1050 -459 -1029 -1 5 -21 92 -43 194 -301 1361 -412 2297 -336 2840 31
222 92 491 162 720 20 63 40 131 46 150 6 19 32 89 58 155 55 139 106 300 115
366 10 76 -83 428 -142 542 -118 222 -295 378 -515 452 -155 51 -372 68 -525
40z m323 -539 c70 -19 149 -63 185 -103 70 -80 99 -178 99 -331 -1 -292 -129
-447 -389 -468 -150 -13 -297 27 -380 102 -90 81 -131 200 -131 379 0 232 99
374 295 421 69 17 258 17 321 0z m-2923 -564 c146 -52 222 -157 248 -341 18
-129 -2 -264 -54 -364 -67 -128 -189 -187 -387 -187 -165 0 -268 38 -350 127
-58 63 -87 135 -103 250 -13 99 0 217 33 305 41 111 153 200 285 227 80 16
260 7 328 -17z m5815 18 c198 -33 313 -152 342 -355 30 -212 -32 -395 -163
-481 -82 -54 -146 -69 -292 -69 l-130 0 -77 38 c-188 92 -270 254 -245 487 14
135 98 268 208 333 89 52 218 69 357 47z m-8336 -1181 c130 -28 262 -126 312
-233 63 -132 53 -368 -20 -494 -74 -127 -189 -182 -384 -182 -149 0 -243 29
-325 101 -131 115 -174 410 -88 602 33 74 112 148 189 177 102 38 222 49 316
29z m10808 -15 c78 -23 120 -47 166 -92 98 -98 136 -276 99 -466 -19 -101 -44
-155 -99 -214 -83 -89 -199 -128 -357 -120 -77 4 -108 10 -171 37 -169 71
-256 209 -260 411 -2 117 10 173 50 240 73 119 173 194 293 220 60 13 212 4
279 -16z m-7986 -1264 c328 -947 671 -1671 974 -2059 41 -53 170 -205 286
-339 116 -134 223 -258 238 -275 15 -18 28 -26 28 -18 0 7 63 113 139 236 138
220 211 354 278 510 185 429 365 1113 489 1862 16 95 31 173 34 173 3 0 36
-143 74 -318 188 -859 329 -1404 440 -1693 18 -48 323 -604 423 -772 3 -4 18
11 33 35 16 24 64 81 107 128 218 238 421 495 584 735 66 98 306 570 424 835
136 303 306 738 416 1058 23 67 43 121 44 120 1 -2 -3 -82 -11 -178 -38 -509
-25 -902 52 -1538 55 -460 224 -1472 246 -1472 26 0 314 195 478 323 193 152
316 262 525 471 282 283 531 572 790 919 60 81 111 144 113 139 4 -13 -91
-533 -157 -862 -149 -734 -276 -1180 -409 -1434 -50 -95 -126 -186 -156 -186
-10 0 -66 26 -125 58 -973 533 -2277 802 -3886 802 -804 0 -1462 -58 -2105
-186 -655 -130 -1151 -295 -1673 -557 -273 -137 -261 -136 -343 -44 -124 139
-231 476 -419 1327 -89 404 -228 1080 -222 1086 2 2 32 -36 68 -83 436 -589
958 -1133 1424 -1484 172 -129 411 -289 433 -289 8 0 21 72 97 550 190 1195
253 1965 204 2490 -6 58 -13 116 -16 130 -15 64 12 -4 81 -200z m2816 -3430
c229 -12 793 -54 1000 -75 1096 -112 1719 -300 1853 -560 14 -27 22 -65 25
-121 4 -72 2 -84 -16 -102 -65 -65 -200 -65 -1299 2 -1590 98 -1818 98 -3491
11 -684 -36 -1296 -65 -1360 -65 -128 0 -225 16 -267 44 -26 17 -27 19 -23
105 3 82 5 91 41 145 74 111 243 206 542 305 541 179 1217 279 2095 310 322
12 681 12 900 1z m290 -1440 c771 -22 1409 -67 2192 -156 l156 -18 -38 -43
c-126 -143 -191 -418 -177 -748 7 -156 28 -250 71 -315 l27 -41 -23 5 c-53 11
-283 47 -423 66 -666 88 -1454 130 -2430 130 -1120 0 -2066 -62 -2754 -180
-63 -11 -117 -17 -120 -15 -2 3 1 5 7 5 19 0 60 82 78 155 13 54 18 116 18
265 0 234 -17 352 -74 502 -24 65 -93 174 -121 191 -30 19 -23 24 39 30 31 3
174 19 317 36 980 113 2180 161 3255 131z m280 -1781 c943 -29 1691 -129 1899
-252 110 -65 190 -167 191 -241 0 -82 -77 -161 -213 -219 -276 -116 -745 -182
-1622 -229 -330 -18 -2020 -18 -2350 0 -1077 58 -1609 155 -1781 327 -47 48
-61 89 -50 158 26 160 221 276 571 337 158 28 246 37 555 60 1005 72 1835 90
2800 59z"/>
</g>
</svg>
